<svg width="78" height="72" viewBox="0 0 78 72" fill="none" xmlns="http://www.w3.org/2000/svg">
<path d="M6.22556 71.6069C4.74329 72.2463 3.33512 72.1057 2.00107 71.185C0.667024 70.2642 0 68.9264 0 67.1713L0 49.3086C0 48.1897 0.296456 47.1907 0.889366 46.3115C1.48228 45.4324 2.29753 44.8729 3.33512 44.6332L35.5746 36.0016L3.33512 27.37C2.29753 27.1302 1.48228 26.5707 0.889366 25.6916C0.296456 24.8124 0 23.8134 0 22.6945L0 4.83188C0 3.07359 0.667024 1.73409 2.00107 0.813384C3.33512 -0.10732 4.74329 -0.246387 6.22556 0.396188L74.7067 31.5659C76.5596 32.445 77.486 33.9236 77.486 36.0016C77.486 38.0795 76.5596 39.5581 74.7067 40.4373L6.22556 71.6069Z" fill="#EC8931"/>
</svg>
