<svg xmlns="http://www.w3.org/2000/svg" width="25" height="25" viewBox="0 0 25 25" fill="none">
  <path d="M2.125 12.214C2.12556 14.61 2.97547 16.9273 4.52196 18.7492C6.06845 20.5712 8.21011 21.7785 10.562 22.154V15.1219H8.025V12.214H10.565V10.0005C10.5089 9.48238 10.5669 8.95823 10.7348 8.46523C10.9027 7.97223 11.1765 7.52248 11.5366 7.14792C11.8968 6.77336 12.3345 6.48319 12.8186 6.298C13.3028 6.11282 13.8215 6.03717 14.338 6.07642C15.088 6.08849 15.838 6.15591 16.578 6.27765V8.75182H15.314C15.0992 8.72351 14.8808 8.74413 14.6749 8.81217C14.4691 8.88021 14.2811 8.99392 14.1248 9.14489C13.9685 9.29587 13.8479 9.48026 13.772 9.68443C13.696 9.8886 13.6666 10.1073 13.686 10.3245V12.214H16.457L16.014 15.1229H13.686V22.154C15.5736 21.8538 17.3362 21.0157 18.7652 19.7389C20.1941 18.4621 21.2295 16.8001 21.7488 14.9496C22.268 13.0991 22.2494 11.1377 21.6952 9.2975C21.1409 7.45731 20.0742 5.81545 18.6214 4.56631C17.1685 3.31716 15.3903 2.51305 13.4974 2.24917C11.6044 1.98528 9.67592 2.27269 7.94025 3.07734C6.20458 3.882 4.73442 5.17021 3.7038 6.78947C2.67319 8.40872 2.1253 10.2912 2.125 12.214Z" fill="white"/>
</svg>