<svg width="67" height="67" viewBox="0 0 67 67" fill="none" xmlns="http://www.w3.org/2000/svg">
<path d="M31.1106 63.4991C15.5066 63.4991 2.89062 50.8831 2.89062 35.2791C2.89062 19.6751 15.5066 7.05908 31.1106 7.05908C46.7146 7.05908 59.3306 19.6751 59.3306 35.2791C59.3306 50.8831 46.5486 63.4991 31.1106 63.4991ZM31.1106 10.3791C17.3326 10.3791 6.21063 21.5011 6.21063 35.2791C6.21063 49.0571 17.3326 60.1791 31.1106 60.1791C44.8886 60.1791 56.0106 49.0571 56.0106 35.2791C56.0106 21.5011 44.7226 10.3791 31.1106 10.3791Z" fill="white"/>
<path d="M31.1094 25.311C32.3857 25.311 33.6098 25.8181 34.5123 26.7206C35.4148 27.6231 35.9219 28.8472 35.9219 30.1235C35.9219 31.3999 35.4148 32.624 34.5123 33.5265C33.6098 34.429 32.3857 34.936 31.1094 34.936C29.833 34.936 28.6089 34.429 27.7064 33.5265C26.8039 32.624 26.2969 31.3999 26.2969 30.1235C26.2969 28.8472 26.8039 27.6231 27.7064 26.7206C28.6089 25.8181 29.833 25.311 31.1094 25.311ZM21.4844 28.7485C22.2544 28.7485 22.9694 28.9548 23.5881 29.326C23.3819 31.2923 23.9594 33.2448 25.1419 34.771C24.4544 36.091 23.0794 36.9985 21.4844 36.9985C20.3904 36.9985 19.3411 36.5639 18.5676 35.7904C17.794 35.0168 17.3594 33.9676 17.3594 32.8735C17.3594 31.7795 17.794 30.7303 18.5676 29.9567C19.3411 29.1831 20.3904 28.7485 21.4844 28.7485ZM40.7344 28.7485C41.8284 28.7485 42.8776 29.1831 43.6512 29.9567C44.4248 30.7303 44.8594 31.7795 44.8594 32.8735C44.8594 33.9676 44.4248 35.0168 43.6512 35.7904C42.8776 36.5639 41.8284 36.9985 40.7344 36.9985C39.1394 36.9985 37.7644 36.091 37.0769 34.771C38.2757 33.2234 38.8322 31.2733 38.6306 29.326C39.2494 28.9548 39.9644 28.7485 40.7344 28.7485ZM22.1719 42.8423C22.1719 39.996 26.1731 37.686 31.1094 37.686C36.0456 37.686 40.0469 39.996 40.0469 42.8423V45.2485H22.1719V42.8423ZM14.6094 45.2485V43.186C14.6094 41.2748 17.2081 39.666 20.7281 39.1985C19.9169 40.1335 19.4219 41.426 19.4219 42.8423V45.2485H14.6094ZM47.6094 45.2485H42.7969V42.8423C42.7969 41.426 42.3019 40.1335 41.4906 39.1985C45.0106 39.666 47.6094 41.2748 47.6094 43.186V45.2485Z" fill="white"/>
</svg>
