<svg xmlns="http://www.w3.org/2000/svg" width="25" height="25" viewBox="0 0 25 25" fill="none">
  <path fill-rule="evenodd" clip-rule="evenodd" d="M8.00227 2.21405C9.06864 2.16496 9.40864 2.15405 12.125 2.15405C14.8414 2.15405 15.1814 2.16587 16.2468 2.21405C17.3123 2.26223 18.0395 2.43223 18.6759 2.6786C19.3423 2.93042 19.9468 3.32405 20.4468 3.83314C20.9559 4.33223 21.3486 4.93587 21.5995 5.60314C21.8468 6.23951 22.0159 6.96678 22.065 8.03042C22.1141 9.0986 22.125 9.4386 22.125 12.1541C22.125 14.8704 22.1132 15.2104 22.065 16.2768C22.0168 17.3404 21.8468 18.0677 21.5995 18.7041C21.3486 19.3714 20.9553 19.9761 20.4468 20.4759C19.9468 20.985 19.3423 21.3777 18.6759 21.6286C18.0395 21.8759 17.3123 22.045 16.2486 22.0941C15.1814 22.1431 14.8414 22.1541 12.125 22.1541C9.40864 22.1541 9.06864 22.1422 8.00227 22.0941C6.93864 22.0459 6.21136 21.8759 5.575 21.6286C4.90766 21.3777 4.30302 20.9843 3.80318 20.4759C3.29444 19.9765 2.90074 19.3721 2.64955 18.705C2.40318 18.0686 2.23409 17.3413 2.185 16.2777C2.13591 15.2095 2.125 14.8695 2.125 12.1541C2.125 9.43769 2.13682 9.09769 2.185 8.03223C2.23318 6.96678 2.40318 6.23951 2.64955 5.60314C2.90111 4.93595 3.29511 4.33161 3.80409 3.83223C4.30322 3.3236 4.90725 2.92991 5.57409 2.6786C6.21045 2.43223 6.93773 2.26314 8.00136 2.21405H8.00227ZM16.1659 4.01405C15.1114 3.96587 14.795 3.95587 12.125 3.95587C9.455 3.95587 9.13864 3.96587 8.08409 4.01405C7.10864 4.0586 6.57955 4.22133 6.22682 4.3586C5.76045 4.54042 5.42682 4.75587 5.07682 5.10587C4.74504 5.42865 4.48971 5.82158 4.32955 6.25587C4.19227 6.6086 4.02955 7.13769 3.985 8.11314C3.93682 9.16769 3.92682 9.48405 3.92682 12.1541C3.92682 14.8241 3.93682 15.1404 3.985 16.195C4.02955 17.1704 4.19227 17.6995 4.32955 18.0522C4.48955 18.4859 4.745 18.8795 5.07682 19.2022C5.39955 19.5341 5.79318 19.7895 6.22682 19.9495C6.57955 20.0868 7.10864 20.2495 8.08409 20.2941C9.13864 20.3422 9.45409 20.3522 12.125 20.3522C14.7959 20.3522 15.1114 20.3422 16.1659 20.2941C17.1414 20.2495 17.6705 20.0868 18.0232 19.9495C18.4895 19.7677 18.8232 19.5522 19.1732 19.2022C19.505 18.8795 19.7605 18.4859 19.9205 18.0522C20.0577 17.6995 20.2205 17.1704 20.265 16.195C20.3132 15.1404 20.3232 14.8241 20.3232 12.1541C20.3232 9.48405 20.3132 9.16769 20.265 8.11314C20.2205 7.13769 20.0577 6.6086 19.9205 6.25587C19.7386 5.78951 19.5232 5.45587 19.1732 5.10587C18.8504 4.77412 18.4575 4.51879 18.0232 4.3586C17.6705 4.22133 17.1414 4.0586 16.1659 4.01405ZM10.8477 15.2368C11.5611 15.5337 12.3553 15.5738 13.0949 15.3502C13.8345 15.1265 14.4735 14.6531 14.9028 14.0106C15.3321 13.3682 15.5251 12.5967 15.4487 11.8278C15.3723 11.0589 15.0314 10.3404 14.4841 9.79496C14.1352 9.4463 13.7134 9.17934 13.2489 9.01328C12.7845 8.84722 12.289 8.7862 11.7982 8.83461C11.3073 8.88303 10.8333 9.03967 10.4103 9.29326C9.98723 9.54686 9.62568 9.89109 9.35164 10.3012C9.0776 10.7113 8.8979 11.177 8.82547 11.6649C8.75304 12.1528 8.78968 12.6507 8.93276 13.1227C9.07584 13.5947 9.3218 14.0292 9.65293 14.3947C9.98406 14.7603 10.3921 15.0479 10.8477 15.2368ZM8.49045 8.51951C8.96775 8.04221 9.53438 7.6636 10.158 7.40529C10.7816 7.14698 11.45 7.01403 12.125 7.01403C12.8 7.01403 13.4684 7.14698 14.092 7.40529C14.7156 7.6636 15.2823 8.04221 15.7595 8.51951C16.2368 8.9968 16.6155 9.56343 16.8738 10.1871C17.1321 10.8107 17.265 11.4791 17.265 12.1541C17.265 12.8291 17.1321 13.4974 16.8738 14.1211C16.6155 14.7447 16.2368 15.3113 15.7595 15.7886C14.7956 16.7525 13.4882 17.2941 12.125 17.2941C10.7618 17.2941 9.4544 16.7525 8.49045 15.7886C7.52651 14.8247 6.98498 13.5173 6.98498 12.1541C6.98498 10.7908 7.52651 9.48345 8.49045 8.51951ZM18.405 7.77951C18.5233 7.66793 18.618 7.53376 18.6835 7.38494C18.749 7.23611 18.7839 7.07566 18.7863 6.91308C18.7887 6.7505 18.7584 6.5891 18.6973 6.43843C18.6361 6.28776 18.5454 6.15088 18.4304 6.03591C18.3154 5.92093 18.1786 5.8302 18.0279 5.76907C17.8772 5.70794 17.7158 5.67767 17.5532 5.68004C17.3907 5.68241 17.2302 5.71737 17.0814 5.78287C16.9326 5.84836 16.7984 5.94305 16.6868 6.06133C16.4698 6.29135 16.351 6.59689 16.3556 6.91308C16.3602 7.22927 16.4879 7.53122 16.7115 7.75482C16.9351 7.97842 17.2371 8.10608 17.5532 8.11069C17.8694 8.1153 18.175 7.9965 18.405 7.77951Z" fill="white"/>
</svg>