<svg width="67" height="67" viewBox="0 0 67 67" fill="none" xmlns="http://www.w3.org/2000/svg">
<path d="M44.8325 44.3077V40.2601C44.8325 39.1268 44.6706 37.9934 44.023 36.8601C43.3754 35.7268 42.5659 34.7554 41.4325 34.1078C40.2992 33.2982 37.8707 33.1363 36.7373 33.1363L34.1469 35.8887L35.1183 37.9934V42.8505L33.4993 44.6315L31.8802 42.8505V37.9934L33.0136 35.8887L30.2612 33.1363C28.966 33.1363 26.5374 33.2982 25.4041 34.1078C24.2708 34.7554 23.6231 35.7268 22.9755 36.8601C22.3279 37.9934 22.166 38.9649 22.166 40.2601V44.3077C22.166 44.3077 26.3755 46.0886 33.4993 46.0886C40.623 46.0886 44.8325 44.3077 44.8325 44.3077ZM33.4993 20.3459C30.4231 20.3459 28.6422 23.2602 29.1279 26.4983C29.6136 29.7364 31.2326 32.003 33.4993 32.003C35.7659 32.003 37.385 29.7364 37.8707 26.4983C38.3564 23.0983 36.5754 20.3459 33.4993 20.3459Z" fill="white"/>
<path d="M33.1829 61.657C17.5789 61.657 4.96289 49.041 4.96289 33.437C4.96289 17.833 17.5789 5.21704 33.1829 5.21704C48.7869 5.21704 61.4029 17.833 61.4029 33.437C61.4029 49.041 48.6209 61.657 33.1829 61.657ZM33.1829 8.53704C19.4049 8.53704 8.28289 19.659 8.28289 33.437C8.28289 47.215 19.4049 58.337 33.1829 58.337C46.9609 58.337 58.0829 47.215 58.0829 33.437C58.0829 19.659 46.7949 8.53704 33.1829 8.53704Z" fill="white"/>
</svg>
