<svg width="58" height="58" viewBox="0 0 58 58" fill="none" xmlns="http://www.w3.org/2000/svg">
<path d="M44.9733 29.4295L47.3933 31.8668L36.1055 43.2583L30.1073 37.2082L32.5273 34.7709L36.1055 38.3664L44.9733 29.4295ZM25.7858 37.2082L30.9716 42.394H13.6855V38.9368C13.6855 35.1166 19.874 32.0224 27.5144 32.0224L30.7814 32.2125L25.7858 37.2082ZM27.5144 14.7363C29.3482 14.7363 31.1069 15.4648 32.4036 16.7615C33.7003 18.0582 34.4288 19.8169 34.4288 21.6507C34.4288 23.4846 33.7003 25.2433 32.4036 26.54C31.1069 27.8367 29.3482 28.5652 27.5144 28.5652C25.6806 28.5652 23.9219 27.8367 22.6252 26.54C21.3284 25.2433 20.6 23.4846 20.6 21.6507C20.6 19.8169 21.3284 18.0582 22.6252 16.7615C23.9219 15.4648 25.6806 14.7363 27.5144 14.7363Z" fill="white"/>
<path d="M28.9993 57.2173C13.3953 57.2173 0.779297 44.6013 0.779297 28.9973C0.779297 13.3933 13.3953 0.777344 28.9993 0.777344C44.6033 0.777344 57.2193 13.3933 57.2193 28.9973C57.2193 44.6013 44.4373 57.2173 28.9993 57.2173ZM28.9993 4.09734C15.2213 4.09734 4.0993 15.2193 4.0993 28.9973C4.0993 42.7753 15.2213 53.8973 28.9993 53.8973C42.7773 53.8973 53.8993 42.7753 53.8993 28.9973C53.8993 15.2193 42.6113 4.09734 28.9993 4.09734Z" fill="white"/>
</svg>
