<svg width="187" height="28" viewBox="0 0 187 28" fill="none" xmlns="http://www.w3.org/2000/svg">
<path d="M39.2812 16.5742H41.5312C41.4141 17.6523 41.1055 18.6172 40.6055 19.4688C40.1055 20.3203 39.3984 20.9961 38.4844 21.4961C37.5703 21.9883 36.4297 22.2344 35.0625 22.2344C34.0625 22.2344 33.1523 22.0469 32.332 21.6719C31.5195 21.2969 30.8203 20.7656 30.2344 20.0781C29.6484 19.3828 29.1953 18.5508 28.875 17.582C28.5625 16.6055 28.4062 15.5195 28.4062 14.3242V12.625C28.4062 11.4297 28.5625 10.3477 28.875 9.37891C29.1953 8.40234 29.6523 7.56641 30.2461 6.87109C30.8477 6.17578 31.5703 5.64062 32.4141 5.26562C33.2578 4.89062 34.207 4.70312 35.2617 4.70312C36.5508 4.70312 37.6406 4.94531 38.5312 5.42969C39.4219 5.91406 40.1133 6.58594 40.6055 7.44531C41.1055 8.29688 41.4141 9.28516 41.5312 10.4102H39.2812C39.1719 9.61328 38.9688 8.92969 38.6719 8.35938C38.375 7.78125 37.9531 7.33594 37.4062 7.02344C36.8594 6.71094 36.1445 6.55469 35.2617 6.55469C34.5039 6.55469 33.8359 6.69922 33.2578 6.98828C32.6875 7.27734 32.207 7.6875 31.8164 8.21875C31.4336 8.75 31.1445 9.38672 30.9492 10.1289C30.7539 10.8711 30.6562 11.6953 30.6562 12.6016V14.3242C30.6562 15.1602 30.7422 15.9453 30.9141 16.6797C31.0938 17.4141 31.3633 18.0586 31.7227 18.6133C32.082 19.168 32.5391 19.6055 33.0938 19.9258C33.6484 20.2383 34.3047 20.3945 35.0625 20.3945C36.0234 20.3945 36.7891 20.2422 37.3594 19.9375C37.9297 19.6328 38.3594 19.1953 38.6484 18.625C38.9453 18.0547 39.1562 17.3711 39.2812 16.5742ZM46.4531 11.3125V22H44.2852V9.32031H46.3945L46.4531 11.3125ZM50.4141 9.25L50.4023 11.2656C50.2227 11.2266 50.0508 11.2031 49.8867 11.1953C49.7305 11.1797 49.5508 11.1719 49.3477 11.1719C48.8477 11.1719 48.4062 11.25 48.0234 11.4062C47.6406 11.5625 47.3164 11.7812 47.0508 12.0625C46.7852 12.3438 46.5742 12.6797 46.418 13.0703C46.2695 13.4531 46.1719 13.875 46.125 14.3359L45.5156 14.6875C45.5156 13.9219 45.5898 13.2031 45.7383 12.5312C45.8945 11.8594 46.1328 11.2656 46.4531 10.75C46.7734 10.2266 47.1797 9.82031 47.6719 9.53125C48.1719 9.23438 48.7656 9.08594 49.4531 9.08594C49.6094 9.08594 49.7891 9.10547 49.9922 9.14453C50.1953 9.17578 50.3359 9.21094 50.4141 9.25ZM57.4453 22.2344C56.5625 22.2344 55.7617 22.0859 55.043 21.7891C54.332 21.4844 53.7188 21.0586 53.2031 20.5117C52.6953 19.9648 52.3047 19.3164 52.0312 18.5664C51.7578 17.8164 51.6211 16.9961 51.6211 16.1055V15.6133C51.6211 14.582 51.7734 13.6641 52.0781 12.8594C52.3828 12.0469 52.7969 11.3594 53.3203 10.7969C53.8438 10.2344 54.4375 9.80859 55.1016 9.51953C55.7656 9.23047 56.4531 9.08594 57.1641 9.08594C58.0703 9.08594 58.8516 9.24219 59.5078 9.55469C60.1719 9.86719 60.7148 10.3047 61.1367 10.8672C61.5586 11.4219 61.8711 12.0781 62.0742 12.8359C62.2773 13.5859 62.3789 14.4062 62.3789 15.2969V16.2695H52.9102V14.5H60.2109V14.3359C60.1797 13.7734 60.0625 13.2266 59.8594 12.6953C59.6641 12.1641 59.3516 11.7266 58.9219 11.3828C58.4922 11.0391 57.9062 10.8672 57.1641 10.8672C56.6719 10.8672 56.2188 10.9727 55.8047 11.1836C55.3906 11.3867 55.0352 11.6914 54.7383 12.0977C54.4414 12.5039 54.2109 13 54.0469 13.5859C53.8828 14.1719 53.8008 14.8477 53.8008 15.6133V16.1055C53.8008 16.707 53.8828 17.2734 54.0469 17.8047C54.2188 18.3281 54.4648 18.7891 54.7852 19.1875C55.1133 19.5859 55.5078 19.8984 55.9688 20.125C56.4375 20.3516 56.9688 20.4648 57.5625 20.4648C58.3281 20.4648 58.9766 20.3086 59.5078 19.9961C60.0391 19.6836 60.5039 19.2656 60.9023 18.7422L62.2148 19.7852C61.9414 20.1992 61.5938 20.5938 61.1719 20.9688C60.75 21.3438 60.2305 21.6484 59.6133 21.8828C59.0039 22.1172 58.2812 22.2344 57.4453 22.2344ZM72.9023 19.5391V4H75.082V22H73.0898L72.9023 19.5391ZM64.3711 15.8008V15.5547C64.3711 14.5859 64.4883 13.707 64.7227 12.918C64.9648 12.1211 65.3047 11.4375 65.7422 10.8672C66.1875 10.2969 66.7148 9.85938 67.3242 9.55469C67.9414 9.24219 68.6289 9.08594 69.3867 9.08594C70.1836 9.08594 70.8789 9.22656 71.4727 9.50781C72.0742 9.78125 72.582 10.1836 72.9961 10.7148C73.418 11.2383 73.75 11.8711 73.9922 12.6133C74.2344 13.3555 74.4023 14.1953 74.4961 15.1328V16.2109C74.4102 17.1406 74.2422 17.9766 73.9922 18.7188C73.75 19.4609 73.418 20.0938 72.9961 20.6172C72.582 21.1406 72.0742 21.543 71.4727 21.8242C70.8711 22.0977 70.168 22.2344 69.3633 22.2344C68.6211 22.2344 67.9414 22.0742 67.3242 21.7539C66.7148 21.4336 66.1875 20.9844 65.7422 20.4062C65.3047 19.8281 64.9648 19.1484 64.7227 18.3672C64.4883 17.5781 64.3711 16.7227 64.3711 15.8008ZM66.5508 15.5547V15.8008C66.5508 16.4336 66.6133 17.0273 66.7383 17.582C66.8711 18.1367 67.0742 18.625 67.3477 19.0469C67.6211 19.4688 67.9688 19.8008 68.3906 20.043C68.8125 20.2773 69.3164 20.3945 69.9023 20.3945C70.6211 20.3945 71.2109 20.2422 71.6719 19.9375C72.1406 19.6328 72.5156 19.2305 72.7969 18.7305C73.0781 18.2305 73.2969 17.6875 73.4531 17.1016V14.2773C73.3594 13.8477 73.2227 13.4336 73.043 13.0352C72.8711 12.6289 72.6445 12.2695 72.3633 11.957C72.0898 11.6367 71.75 11.3828 71.3438 11.1953C70.9453 11.0078 70.4727 10.9141 69.9258 10.9141C69.332 10.9141 68.8203 11.0391 68.3906 11.2891C67.9688 11.5312 67.6211 11.8672 67.3477 12.2969C67.0742 12.7188 66.8711 13.2109 66.7383 13.7734C66.6133 14.3281 66.5508 14.9219 66.5508 15.5547ZM80.8125 9.32031V22H78.6328V9.32031H80.8125ZM78.4688 5.95703C78.4688 5.60547 78.5742 5.30859 78.7852 5.06641C79.0039 4.82422 79.3242 4.70312 79.7461 4.70312C80.1602 4.70312 80.4766 4.82422 80.6953 5.06641C80.9219 5.30859 81.0352 5.60547 81.0352 5.95703C81.0352 6.29297 80.9219 6.58203 80.6953 6.82422C80.4766 7.05859 80.1602 7.17578 79.7461 7.17578C79.3242 7.17578 79.0039 7.05859 78.7852 6.82422C78.5742 6.58203 78.4688 6.29297 78.4688 5.95703ZM89.6016 9.32031V10.9844H82.7461V9.32031H89.6016ZM85.0664 6.23828H87.2344V18.8594C87.2344 19.2891 87.3008 19.6133 87.4336 19.832C87.5664 20.0508 87.7383 20.1953 87.9492 20.2656C88.1602 20.3359 88.3867 20.3711 88.6289 20.3711C88.8086 20.3711 88.9961 20.3555 89.1914 20.3242C89.3945 20.2852 89.5469 20.2539 89.6484 20.2305L89.6602 22C89.4883 22.0547 89.2617 22.1055 88.9805 22.1523C88.707 22.207 88.375 22.2344 87.9844 22.2344C87.4531 22.2344 86.9648 22.1289 86.5195 21.918C86.0742 21.707 85.7188 21.3555 85.4531 20.8633C85.1953 20.3633 85.0664 19.6914 85.0664 18.8477V6.23828Z" fill="white"/>
<path d="M101.906 16.3398H105.41C105.34 17.4883 105.023 18.5078 104.461 19.3984C103.906 20.2891 103.129 20.9844 102.129 21.4844C101.137 21.9844 99.9414 22.2344 98.543 22.2344C97.4492 22.2344 96.4688 22.0469 95.6016 21.6719C94.7344 21.2891 93.9922 20.7422 93.375 20.0312C92.7656 19.3203 92.3008 18.4609 91.9805 17.4531C91.6602 16.4453 91.5 15.3164 91.5 14.0664V12.8828C91.5 11.6328 91.6641 10.5039 91.9922 9.49609C92.3281 8.48047 92.8047 7.61719 93.4219 6.90625C94.0469 6.19531 94.793 5.64844 95.6602 5.26562C96.5273 4.88281 97.4961 4.69141 98.5664 4.69141C99.9883 4.69141 101.188 4.94922 102.164 5.46484C103.148 5.98047 103.91 6.69141 104.449 7.59766C104.996 8.50391 105.324 9.53516 105.434 10.6914H101.918C101.879 10.0039 101.742 9.42188 101.508 8.94531C101.273 8.46094 100.918 8.09766 100.441 7.85547C99.9727 7.60547 99.3477 7.48047 98.5664 7.48047C97.9805 7.48047 97.4688 7.58984 97.0312 7.80859C96.5938 8.02734 96.2266 8.35938 95.9297 8.80469C95.6328 9.25 95.4102 9.8125 95.2617 10.4922C95.1211 11.1641 95.0508 11.9531 95.0508 12.8594V14.0664C95.0508 14.9492 95.1172 15.7266 95.25 16.3984C95.3828 17.0625 95.5859 17.625 95.8594 18.0859C96.1406 18.5391 96.5 18.8828 96.9375 19.1172C97.3828 19.3438 97.918 19.457 98.543 19.457C99.2773 19.457 99.8828 19.3398 100.359 19.1055C100.836 18.8711 101.199 18.5234 101.449 18.0625C101.707 17.6016 101.859 17.0273 101.906 16.3398ZM106.969 15.7891V15.543C106.969 14.6133 107.102 13.7578 107.367 12.9766C107.633 12.1875 108.02 11.5039 108.527 10.9258C109.035 10.3477 109.66 9.89844 110.402 9.57812C111.145 9.25 111.996 9.08594 112.957 9.08594C113.918 9.08594 114.773 9.25 115.523 9.57812C116.273 9.89844 116.902 10.3477 117.41 10.9258C117.926 11.5039 118.316 12.1875 118.582 12.9766C118.848 13.7578 118.98 14.6133 118.98 15.543V15.7891C118.98 16.7109 118.848 17.5664 118.582 18.3555C118.316 19.1367 117.926 19.8203 117.41 20.4062C116.902 20.9844 116.277 21.4336 115.535 21.7539C114.793 22.0742 113.941 22.2344 112.98 22.2344C112.02 22.2344 111.164 22.0742 110.414 21.7539C109.672 21.4336 109.043 20.9844 108.527 20.4062C108.02 19.8203 107.633 19.1367 107.367 18.3555C107.102 17.5664 106.969 16.7109 106.969 15.7891ZM110.344 15.543V15.7891C110.344 16.3203 110.391 16.8164 110.484 17.2773C110.578 17.7383 110.727 18.1445 110.93 18.4961C111.141 18.8398 111.414 19.1094 111.75 19.3047C112.086 19.5 112.496 19.5977 112.98 19.5977C113.449 19.5977 113.852 19.5 114.188 19.3047C114.523 19.1094 114.793 18.8398 114.996 18.4961C115.199 18.1445 115.348 17.7383 115.441 17.2773C115.543 16.8164 115.594 16.3203 115.594 15.7891V15.543C115.594 15.0273 115.543 14.543 115.441 14.0898C115.348 13.6289 115.195 13.2227 114.984 12.8711C114.781 12.5117 114.512 12.2305 114.176 12.0273C113.84 11.8242 113.434 11.7227 112.957 11.7227C112.48 11.7227 112.074 11.8242 111.738 12.0273C111.41 12.2305 111.141 12.5117 110.93 12.8711C110.727 13.2227 110.578 13.6289 110.484 14.0898C110.391 14.543 110.344 15.0273 110.344 15.543ZM124.359 12.0273V22H120.984V9.32031H124.148L124.359 12.0273ZM123.867 15.2148H122.953C122.953 14.2773 123.074 13.4336 123.316 12.6836C123.559 11.9258 123.898 11.2812 124.336 10.75C124.773 10.2109 125.293 9.80078 125.895 9.51953C126.504 9.23047 127.184 9.08594 127.934 9.08594C128.527 9.08594 129.07 9.17188 129.562 9.34375C130.055 9.51562 130.477 9.78906 130.828 10.1641C131.188 10.5391 131.461 11.0352 131.648 11.6523C131.844 12.2695 131.941 13.0234 131.941 13.9141V22H128.543V13.9023C128.543 13.3398 128.465 12.9023 128.309 12.5898C128.152 12.2773 127.922 12.0586 127.617 11.9336C127.32 11.8008 126.953 11.7344 126.516 11.7344C126.062 11.7344 125.668 11.8242 125.332 12.0039C125.004 12.1836 124.73 12.4336 124.512 12.7539C124.301 13.0664 124.141 13.4336 124.031 13.8555C123.922 14.2773 123.867 14.7305 123.867 15.2148ZM137.812 12.0273V22H134.438V9.32031H137.602L137.812 12.0273ZM137.32 15.2148H136.406C136.406 14.2773 136.527 13.4336 136.77 12.6836C137.012 11.9258 137.352 11.2812 137.789 10.75C138.227 10.2109 138.746 9.80078 139.348 9.51953C139.957 9.23047 140.637 9.08594 141.387 9.08594C141.98 9.08594 142.523 9.17188 143.016 9.34375C143.508 9.51562 143.93 9.78906 144.281 10.1641C144.641 10.5391 144.914 11.0352 145.102 11.6523C145.297 12.2695 145.395 13.0234 145.395 13.9141V22H141.996V13.9023C141.996 13.3398 141.918 12.9023 141.762 12.5898C141.605 12.2773 141.375 12.0586 141.07 11.9336C140.773 11.8008 140.406 11.7344 139.969 11.7344C139.516 11.7344 139.121 11.8242 138.785 12.0039C138.457 12.1836 138.184 12.4336 137.965 12.7539C137.754 13.0664 137.594 13.4336 137.484 13.8555C137.375 14.2773 137.32 14.7305 137.32 15.2148ZM153.797 22.2344C152.812 22.2344 151.93 22.0781 151.148 21.7656C150.367 21.4453 149.703 21.0039 149.156 20.4414C148.617 19.8789 148.203 19.2266 147.914 18.4844C147.625 17.7344 147.48 16.9375 147.48 16.0938V15.625C147.48 14.6641 147.617 13.7852 147.891 12.9883C148.164 12.1914 148.555 11.5 149.062 10.9141C149.578 10.3281 150.203 9.87891 150.938 9.56641C151.672 9.24609 152.5 9.08594 153.422 9.08594C154.32 9.08594 155.117 9.23438 155.812 9.53125C156.508 9.82812 157.09 10.25 157.559 10.7969C158.035 11.3438 158.395 12 158.637 12.7656C158.879 13.5234 159 14.3672 159 15.2969V16.7031H148.922V14.4531H155.684V14.1953C155.684 13.7266 155.598 13.3086 155.426 12.9414C155.262 12.5664 155.012 12.2695 154.676 12.0508C154.34 11.832 153.91 11.7227 153.387 11.7227C152.941 11.7227 152.559 11.8203 152.238 12.0156C151.918 12.2109 151.656 12.4844 151.453 12.8359C151.258 13.1875 151.109 13.6016 151.008 14.0781C150.914 14.5469 150.867 15.0625 150.867 15.625V16.0938C150.867 16.6016 150.938 17.0703 151.078 17.5C151.227 17.9297 151.434 18.3008 151.699 18.6133C151.973 18.9258 152.301 19.168 152.684 19.3398C153.074 19.5117 153.516 19.5977 154.008 19.5977C154.617 19.5977 155.184 19.4805 155.707 19.2461C156.238 19.0039 156.695 18.6406 157.078 18.1562L158.719 19.9375C158.453 20.3203 158.09 20.6875 157.629 21.0391C157.176 21.3906 156.629 21.6797 155.988 21.9062C155.348 22.125 154.617 22.2344 153.797 22.2344ZM166.16 19.5977C166.574 19.5977 166.941 19.5195 167.262 19.3633C167.582 19.1992 167.832 18.9727 168.012 18.6836C168.199 18.3867 168.297 18.0391 168.305 17.6406H171.48C171.473 18.5312 171.234 19.3242 170.766 20.0195C170.297 20.707 169.668 21.25 168.879 21.6484C168.09 22.0391 167.207 22.2344 166.23 22.2344C165.246 22.2344 164.387 22.0703 163.652 21.7422C162.926 21.4141 162.32 20.9609 161.836 20.3828C161.352 19.7969 160.988 19.1172 160.746 18.3438C160.504 17.5625 160.383 16.7266 160.383 15.8359V15.4961C160.383 14.5977 160.504 13.7617 160.746 12.9883C160.988 12.207 161.352 11.5273 161.836 10.9492C162.32 10.3633 162.926 9.90625 163.652 9.57812C164.379 9.25 165.23 9.08594 166.207 9.08594C167.246 9.08594 168.156 9.28516 168.938 9.68359C169.727 10.082 170.344 10.6523 170.789 11.3945C171.242 12.1289 171.473 13 171.48 14.0078H168.305C168.297 13.5859 168.207 13.2031 168.035 12.8594C167.871 12.5156 167.629 12.2422 167.309 12.0391C166.996 11.8281 166.609 11.7227 166.148 11.7227C165.656 11.7227 165.254 11.8281 164.941 12.0391C164.629 12.2422 164.387 12.5234 164.215 12.8828C164.043 13.2344 163.922 13.6367 163.852 14.0898C163.789 14.5352 163.758 15.0039 163.758 15.4961V15.8359C163.758 16.3281 163.789 16.8008 163.852 17.2539C163.914 17.707 164.031 18.1094 164.203 18.4609C164.383 18.8125 164.629 19.0898 164.941 19.293C165.254 19.4961 165.66 19.5977 166.16 19.5977ZM179.648 9.32031V11.7109H172.266V9.32031H179.648ZM174.094 6.19141H177.469V18.1797C177.469 18.5469 177.516 18.8281 177.609 19.0234C177.711 19.2188 177.859 19.3555 178.055 19.4336C178.25 19.5039 178.496 19.5391 178.793 19.5391C179.004 19.5391 179.191 19.5312 179.355 19.5156C179.527 19.4922 179.672 19.4688 179.789 19.4453L179.801 21.9297C179.512 22.0234 179.199 22.0977 178.863 22.1523C178.527 22.207 178.156 22.2344 177.75 22.2344C177.008 22.2344 176.359 22.1133 175.805 21.8711C175.258 21.6211 174.836 21.2227 174.539 20.6758C174.242 20.1289 174.094 19.4102 174.094 18.5195V6.19141Z" fill="#EC8931"/>
<path d="M0 6.35591L10.6032 0.125183L5.46555 9.198L0.218622 18.2708L0 6.35591Z" fill="white"/>
<path d="M21.4967 6.09786L21.4231 18.396L16.2578 9.33886L11.1486 0.18782L21.4967 6.09786Z" fill="white"/>
<path d="M11.0254 24.8846L0.327811 18.8174L10.7539 18.7303L21.2347 18.7378L11.0254 24.8846Z" fill="white"/>
</svg>
