<svg width="57" height="57" viewBox="0 0 57 57" fill="none" xmlns="http://www.w3.org/2000/svg">
<path d="M28.4993 56.4366C12.8953 56.4366 0.279297 43.8206 0.279297 28.2166C0.279297 12.6126 12.8953 -0.00341797 28.4993 -0.00341797C44.1033 -0.00341797 56.7193 12.6126 56.7193 28.2166C56.7193 43.8206 43.9373 56.4366 28.4993 56.4366ZM28.4993 3.31658C14.7213 3.31658 3.5993 14.4386 3.5993 28.2166C3.5993 41.9946 14.7213 53.1166 28.4993 53.1166C42.2773 53.1166 53.3993 41.9946 53.3993 28.2166C53.3993 14.4386 42.1113 3.31658 28.4993 3.31658Z" fill="white"/>
<path d="M12.2282 48.6352L9.24023 47.3072C10.0702 45.3152 12.7262 44.1532 15.5482 42.8252C18.3702 41.4972 21.8562 40.0032 21.8562 38.1772V35.6872C20.8602 34.8572 19.2002 33.0312 18.8682 30.3752C18.0382 29.5452 16.7102 28.0512 16.7102 26.0592C16.7102 24.8972 17.2082 23.9012 17.5402 23.2372C17.2082 21.9092 16.8762 19.4192 16.8762 17.4272C16.8762 10.9532 21.3582 6.63721 28.4962 6.63721C30.4882 6.63721 32.9782 7.13521 34.3062 8.62921C37.4602 9.29321 40.1162 12.9452 40.1162 17.4272C40.1162 20.2492 39.6182 22.5732 39.2862 23.7352C39.6182 24.2332 39.9502 25.0632 39.9502 26.0592C39.9502 28.2172 38.7882 29.7112 37.7922 30.3752C37.4602 33.0312 35.9662 34.6912 34.9702 35.5212V38.1772C34.9702 39.6712 37.9582 40.8332 40.6142 41.8292C43.7682 42.9912 47.0882 44.3192 48.2502 46.9752L45.0962 48.1372C44.5982 46.8092 41.9422 45.8132 39.4522 44.9832C35.8002 43.6552 31.6502 42.1612 31.6502 38.3432V34.0272L32.4802 33.5292C32.4802 33.5292 34.4722 32.2012 34.4722 29.5452V28.3832L35.4682 27.8852C35.6342 27.8852 36.4642 27.3872 36.4642 26.0592C36.4642 25.7272 36.1322 25.2292 35.9662 25.0632L35.3022 24.3992L35.6342 23.5692C35.6342 23.5692 36.4642 20.9132 36.4642 17.5932C36.4642 14.4392 34.6382 12.1152 33.1442 12.1152H32.1482L31.6502 11.2852C31.6502 10.6212 30.4882 9.95721 28.4962 9.95721C23.3502 9.95721 20.1962 12.7792 20.1962 17.4272C20.1962 19.5852 21.0262 23.2372 21.0262 23.2372L21.1922 24.0672L20.5282 24.8972C20.3622 24.8972 20.0302 25.3952 20.0302 26.0592C20.0302 26.8892 21.0262 27.8852 21.5242 28.2172L22.1882 28.7152V29.5452C22.1882 32.0352 24.3462 33.3632 24.3462 33.5292L25.1762 34.0272V38.3432C25.1762 42.3272 20.8602 44.3192 16.8762 45.9792C15.0502 46.6432 12.5602 47.8052 12.2282 48.6352Z" fill="white"/>
</svg>
