<svg xmlns="http://www.w3.org/2000/svg" width="25" height="25" viewBox="0 0 25 25" fill="none">
  <path d="M21.7164 7.35706C21.6025 6.93446 21.3799 6.54906 21.0707 6.23923C20.7616 5.92939 20.3767 5.70592 19.9544 5.59106C18.3884 5.16106 12.1234 5.15406 12.1234 5.15406C12.1234 5.15406 5.85938 5.14706 4.29238 5.55806C3.8703 5.67821 3.4862 5.90484 3.17694 6.21619C2.86769 6.52755 2.64366 6.91318 2.52638 7.33606C2.11338 8.90206 2.10938 12.1501 2.10938 12.1501C2.10938 12.1501 2.10538 15.4141 2.51538 16.9641C2.74538 17.8211 3.42038 18.4981 4.27838 18.7291C5.86038 19.1591 12.1084 19.1661 12.1084 19.1661C12.1084 19.1661 18.3734 19.1731 19.9394 18.7631C20.3619 18.6484 20.7471 18.4254 21.057 18.1162C21.3669 17.807 21.5908 17.4223 21.7064 17.0001C22.1204 15.4351 22.1234 12.1881 22.1234 12.1881C22.1234 12.1881 22.1434 8.92306 21.7164 7.35706ZM10.1194 15.1591L10.1244 9.15906L15.3314 12.1641L10.1194 15.1591Z" fill="white"/>
</svg>